<?xml version="1.0" encoding="UTF-8" standalone="no"?>
<!-- Created with Inkscape (http://www.inkscape.org/) -->

<svg
   xmlns:dc="http://purl.org/dc/elements/1.1/"
   xmlns:cc="http://creativecommons.org/ns#"
   xmlns:rdf="http://www.w3.org/1999/02/22-rdf-syntax-ns#"
   xmlns:svg="http://www.w3.org/2000/svg"
   xmlns="http://www.w3.org/2000/svg"
   xmlns:sodipodi="http://sodipodi.sourceforge.net/DTD/sodipodi-0.dtd"
   xmlns:inkscape="http://www.inkscape.org/namespaces/inkscape"
   version="1.1"
   id="svg2"
   width="885.33331"
   height="885.33331"
   viewBox="0 0 885.33331 885.33331"
   sodipodi:docname="defaultColor.svg"
   inkscape:version="0.92.3 (2405546, 2018-03-11)">
  <metadata
     id="metadata8">
    <rdf:RDF>
      <cc:Work
         rdf:about="">
        <dc:format>image/svg+xml</dc:format>
        <dc:type
           rdf:resource="http://purl.org/dc/dcmitype/StillImage" />
        <dc:title />
      </cc:Work>
    </rdf:RDF>
  </metadata>
  <defs
     id="defs6" />
  <sodipodi:namedview
     pagecolor="#ffffff"
     bordercolor="#666666"
     borderopacity="1"
     objecttolerance="10"
     gridtolerance="10"
     guidetolerance="10"
     inkscape:pageopacity="0"
     inkscape:pageshadow="2"
     inkscape:window-width="1920"
     inkscape:window-height="1015"
     id="namedview4"
     showgrid="false"
     inkscape:zoom="0.18849082"
     inkscape:cx="-167.06565"
     inkscape:cy="229.27011"
     inkscape:window-x="0"
     inkscape:window-y="36"
     inkscape:window-maximized="1"
     inkscape:current-layer="svg2" />
  <circle
     style="opacity:1;fill:#ececec;fill-opacity:1;stroke:#808080;stroke-width:4.33412027;stroke-linecap:round;stroke-linejoin:bevel;stroke-miterlimit:4;stroke-dasharray:none;stroke-opacity:1"
     id="path817"
     cx="441.52539"
     cy="443.81921"
     r="442.83295" />
  <path
     style="opacity:1;fill:#cccccc;fill-opacity:1;stroke:none;stroke-width:8.02051926;stroke-linecap:round;stroke-linejoin:bevel;stroke-miterlimit:4;stroke-dasharray:none;stroke-opacity:1"
     d="M 434.7293,-2.7711 C 298.639,-1.69913 165.6998,66.98726 85.2288,176.56766 21.5232,261.64345 -10.7447,370.0142 -1.3285,476.11624 4.1119,559.26622 34.7518,640.97014 85.4963,706.97853 314.2214,519.39317 542.8871,331.6027 770.88,143.08704 685.7798,49.78125 561.2872,-5.28838 434.7293,-2.7711 Z"
     id="path941"
     inkscape:connector-curvature="0" />
  <path
     style="fill:none;stroke:#ff5555;stroke-width:1px;stroke-linecap:butt;stroke-linejoin:miter;stroke-opacity:1"
     d="m 568.39696,1208.3547 c 29.58856,50.2393 38.37009,119.2721 172.56497,75.0282 l 36.29827,44.7275 c 82.6983,69.0954 198.7025,82.1526 309.5144,68.0977 165.2013,-73.2809 220.4562,-208.0025 267.5433,-347.2884 -97.4932,-55.18772 -198.7483,-104.26218 -324.1754,-114.05725 -76.8978,8.90597 -152.4363,6.93702 -239.541,97.49765 -12.62274,-11.3639 -19.74943,-19.3899 -33.85698,-18.8513 -9.89037,2.4729 -4.47265,17.1923 -6.40406,26.0323 -13.91114,-6.0248 -22.18883,-9.3969 -23.72102,-15.4217 -10.34763,6.3865 -17.45808,11.4074 -13.79311,24.8003 1.87571,19.7683 10.38304,48.3802 12.25874,55.1724 -36.99616,-12.4805 -73.99231,-20.4677 -110.98848,8.8682 -28.01191,25.4088 -45.92902,55.8649 -45.69963,95.3944 z"
     id="path943"
     inkscape:connector-curvature="0"
     sodipodi:nodetypes="cccccccccccccc" />
  <path
     style="opacity:1;fill:#ffffff;fill-opacity:1;stroke:#808080;stroke-width:8.02051926;stroke-linecap:round;stroke-linejoin:bevel;stroke-miterlimit:4;stroke-dasharray:none;stroke-opacity:1"
     d="m 474.5627,255.26967 c -54.6686,-0.79609 -119.5463,7.28651 -178.8669,48.71972 -21.1611,13.77905 -39.5758,31.18731 -57.4245,48.92331 -9.8486,-7.9031 -21.7352,-23.1658 -35.8253,-17.9584 -5.7757,6.5684 -2.9969,16.713 -3.7807,24.6992 -5.9746,-6.5604 -7.7565,-16.18698 -18.5226,-18.63617 -9.4264,3.6052 -21.4757,17.87637 -18.1525,27.53107 2.562,36.2667 9.5271,50.42609 10.9868,54.6153 -30.5281,-8.20623 -65.2082,-12.91504 -97.753,1.75118 -34.6267,21.4013 -54.7785,55.33705 -54.635,95.96315 6.2,33.99917 24.9726,70.14477 59.5882,83.96677 35.2338,15.9365 73.5779,12.8329 104.9588,-3.8187 22.5904,20.0778 45.15,53.4956 72.7758,68.0718 68.4386,43.4274 141.2345,57.7619 221.1165,52.6512 24.2531,-0.3459 74.7434,-15.0665 96.0077,-28.3124 81.3454,-46.7017 112.2491,-96.2356 165.5864,-180.5556 22.2517,-45.5703 42.3982,-95.13105 57.3091,-143.63325 1.8201,-8.3627 -36.6617,-23.0829 -40.9478,-27.949 -95.2662,-47.03681 -167.7765,-74.84983 -274.0536,-86.03284 -2.7886,-0.092 -5.5789,-0.0841 -8.3674,0.004 z"
     id="path947"
     inkscape:connector-curvature="0"
     sodipodi:nodetypes="ccccccccccccccccccccc"
     clip-path="none" />
  <path
     style="opacity:1;fill:#ffffff;fill-opacity:1;stroke:#808080;stroke-width:8.018;stroke-linecap:round;stroke-linejoin:bevel;stroke-miterlimit:4;stroke-dasharray:none;stroke-opacity:1"
     d="m 797.9646,235.00863 c -3.4116,-0.32832 -9.5805,2.07928 -10.875,4.2114 -6.0442,3.35367 -14.6091,16.90265 -19.6618,28.50132 -4.78,9.9081 -7.4919,18.6891 -9.1834,29.49534 -2.0003,2.55267 0.082,18.2384 7.7478,24.095 2.7706,3.62467 8.5819,5.86883 10.8342,6.09447 6.3595,1.08073 14.3948,-0.91469 22.6782,-3.17954 7.6406,-3.01154 14.5098,-9.21274 20.5347,-14.5533 6.485,-6.57051 11.1453,-15.88174 12.9847,-24.85642 1.1071,-8.33231 0.3833,-16.46994 -1.5065,-24.70679 -1.866,-6.00497 -6.6091,-11.19224 -10.8062,-15.59852 -5.7697,-5.60016 -14.5049,-10.98451 -22.7467,-9.50296 z"
     id="path955"
     inkscape:connector-curvature="0"
     sodipodi:nodetypes="cccccccccccc" />
  <flowRoot
     xml:space="preserve"
     id="flowRoot965"
     style="fill:black;fill-opacity:1;stroke:none;font-family:sans-serif;font-style:normal;font-weight:normal;font-size:40px;line-height:1.25;letter-spacing:0px;word-spacing:0px"><flowRegion
       id="flowRegion967"><rect
         id="rect969"
         width="1687.0848"
         height="795.79474"
         x="1119.418"
         y="169.11806" /></flowRegion><flowPara
       id="flowPara971" /></flowRoot>  <path
     style="opacity:1;fill:#808080;fill-opacity:1;stroke:none;stroke-width:7.49544239;stroke-linecap:round;stroke-linejoin:bevel;stroke-miterlimit:4;stroke-dasharray:none;stroke-opacity:1"
     d="m 469.98709,276.43617 c -52.10801,-0.72944 -113.94695,6.67641 -170.48908,44.64037 -20.16994,12.62532 -37.72213,28.57597 -54.73483,44.82692 -9.3873,-7.24137 -20.71716,-21.2261 -34.1473,-16.45472 -5.50518,6.01841 -2.85653,15.31361 -3.60362,22.63111 -5.69476,-6.01109 -7.3932,-14.83164 -17.65502,-17.07574 -8.9849,3.30333 -20.46982,16.37955 -17.30228,25.22586 2.44201,33.23005 9.08086,46.20386 10.4722,50.04231 -29.09822,-7.51912 -62.15395,-11.83366 -93.174403,1.60456 -33.004843,19.60934 -52.212766,50.70363 -52.075987,87.92806 5.909602,31.15238 23.802925,64.27148 56.797184,76.93615 33.583516,14.60212 70.131626,11.75838 100.042706,-3.49896 21.53229,18.39667 43.03525,49.01636 69.36709,62.37209 65.23305,39.79118 134.61931,52.92543 210.75978,48.24266 23.11713,-0.31693 71.24255,-13.80497 91.51086,-25.94177 77.53532,-42.79133 106.99154,-88.1777 157.8306,-165.43752 21.20948,-41.75464 40.41235,-87.16563 54.62484,-131.6067 1.73486,-7.66248 -34.94453,-21.15016 -39.02986,-25.6088 -90.8041,-43.09838 -159.91813,-68.58258 -261.21739,-78.82924 -2.65799,-0.0843 -5.31759,-0.0771 -7.97549,0.004 z"
     id="path947-6"
     inkscape:connector-curvature="0"
     sodipodi:nodetypes="ccccccccccccccccccccc"
     clip-path="none" />
  <path
     style="opacity:1;fill:#808080;fill-opacity:1;stroke:none;stroke-width:5.08586168;stroke-linecap:round;stroke-linejoin:bevel;stroke-miterlimit:4;stroke-dasharray:none;stroke-opacity:1"
     d="m 796.56478,248.00101 c -2.41992,-0.2329 -6.79566,1.47487 -7.71389,2.98721 -4.28727,2.37887 -10.36256,11.98945 -13.94656,20.21661 -3.39054,7.02805 -5.31415,13.25661 -6.51399,20.9217 -1.41883,1.81067 0.0581,12.93691 5.4957,17.09114 1.96527,2.57102 6.08733,4.16287 7.68494,4.3229 4.51093,0.7666 10.21054,-0.6488 16.08614,-2.2553 5.41965,-2.13617 10.29212,-6.53481 14.56569,-10.32298 4.59997,-4.66061 7.90563,-11.26525 9.21037,-17.6312 0.78526,-5.91028 0.27186,-11.6825 -1.06863,-17.52504 -1.32358,-4.25948 -4.68796,-7.93891 -7.66506,-11.06439 -4.09257,-3.97233 -10.28863,-7.79156 -16.13471,-6.74065 z"
     id="path955-5"
     inkscape:connector-curvature="0"
     sodipodi:nodetypes="cccccccccccc" />
</svg>
